<?xml version="1.0" encoding="UTF-8" standalone="no"?>
<!-- Created with Inkscape (http://www.inkscape.org/) -->

<svg
   xmlns:dc="http://purl.org/dc/elements/1.1/"
   xmlns:cc="http://creativecommons.org/ns#"
   xmlns:rdf="http://www.w3.org/1999/02/22-rdf-syntax-ns#"
   xmlns:svg="http://www.w3.org/2000/svg"
   xmlns="http://www.w3.org/2000/svg"
   xmlns:sodipodi="http://sodipodi.sourceforge.net/DTD/sodipodi-0.dtd"
   xmlns:inkscape="http://www.inkscape.org/namespaces/inkscape"
   version="1.1"
   id="svg2041"
   xml:space="preserve"
   width="800"
   height="800"
   viewBox="0 0 800 800"
   sodipodi:docname="bull-logo-publicdomainvectors.org.svg"
   inkscape:version="0.92.4 (5da689c313, 2019-01-14)"><metadata
     id="metadata2047"><rdf:RDF><cc:Work
         rdf:about=""><dc:format>image/svg+xml</dc:format><dc:type
           rdf:resource="http://purl.org/dc/dcmitype/StillImage" /><dc:title></dc:title></cc:Work></rdf:RDF></metadata><defs
     id="defs2045"><clipPath
       clipPathUnits="userSpaceOnUse"
       id="clipPath2057"><path
         d="M 0,600 H 600 V 0 H 0 Z"
         id="path2055"
         inkscape:connector-curvature="0" /></clipPath></defs><sodipodi:namedview
     pagecolor="#ffffff"
     bordercolor="#666666"
     borderopacity="1"
     objecttolerance="10"
     gridtolerance="10"
     guidetolerance="10"
     inkscape:pageopacity="0"
     inkscape:pageshadow="2"
     inkscape:window-width="1920"
     inkscape:window-height="1018"
     id="namedview2043"
     showgrid="false"
     inkscape:zoom="0.93105948"
     inkscape:cx="405.08475"
     inkscape:cy="391.52542"
     inkscape:window-x="-8"
     inkscape:window-y="-8"
     inkscape:window-maximized="1"
     inkscape:current-layer="g2049" /><g
     id="g2049"
     inkscape:groupmode="layer"
     inkscape:label="bull-logo-publicdomainvectors.org"
     transform="matrix(1.3333333,0,0,-1.3333333,0,800)"><g
       id="g2051"><g
         id="g2053"
         clip-path="url(#clipPath2057)"><path
           d="m 295.759,82.772 c -117.389,0 -212.892,95.503 -212.892,212.892 0,117.387 95.503,212.889 212.892,212.889 117.387,0 212.89,-95.502 212.89,-212.889 0,-117.389 -95.503,-212.892 -212.89,-212.892 m 0,469.036 C 154.521,551.808 39.615,436.9 39.615,295.664 39.615,154.427 154.521,39.52 295.759,39.52 c 141.237,0 256.143,114.907 256.143,256.144 0,141.236 -114.906,256.144 -256.143,256.144 m -91.581,-69.733 c -1.2,-17.2 15.401,-41.202 46.998,-41.227 -7.816,-9.106 -17.866,-23.285 -22.846,-24.628 -23.102,13.502 -39.453,43.354 -24.152,65.855 m 80.106,-132.909 c -5.099,-2.099 -24.902,-5.401 -25.505,10.201 9.303,5.402 34.582,11.851 36.98,14.551 0,0 -6.376,-22.651 -11.475,-24.752 m -93.162,-88.325 c -0.199,-0.9 -0.274,-1.675 -0.647,-2.718 -0.546,-2.019 -1.502,-3.634 -2.596,-5.091 -1.115,-1.425 -2.423,-2.556 -3.765,-3.311 -1.295,-0.833 -2.634,-1.254 -3.785,-1.577 -1.17,-0.286 -2.198,-0.414 -3.043,-0.436 -1.687,-0.062 -2.62,0.151 -2.62,0.151 0,0 0.938,0.197 2.43,0.785 1.481,0.576 3.546,1.567 5.384,3.295 0.941,0.839 1.733,1.926 2.435,3.106 0.305,0.627 0.657,1.231 0.851,1.948 0.264,0.691 0.452,1.371 0.588,2.066 0.202,0.603 0.245,1.611 0.353,2.467 0.083,0.686 0.06,1.464 -0.019,2.122 -0.172,1.368 -0.713,2.374 -1.641,3.066 -0.901,0.741 -2.318,1.101 -3.797,1.214 -1.493,0.053 -3.075,-0.093 -4.567,-0.492 -3.014,-0.768 -5.672,-2.239 -7.703,-3.831 -2.014,-1.626 -3.411,-3.398 -4.225,-4.76 -0.387,-0.671 -0.73,-1.238 -0.9,-1.647 -0.193,-0.398 -0.295,-0.61 -0.295,-0.61 0.051,0.007 -0.057,0.927 0.311,2.602 0.353,1.653 1.249,4.015 3.163,6.347 1.886,2.323 4.744,4.595 8.379,5.918 1.815,0.641 3.814,1.13 5.965,1.121 2.134,-0.038 4.526,-0.491 6.581,-2.046 2.07,-1.517 3.271,-4.163 3.36,-6.412 0.094,-1.154 0.035,-2.206 -0.197,-3.277 m 269.754,129.583 c -7.998,20.801 -78.337,21.444 -88.088,25.347 -1.949,-7.95 -17.401,-27.903 -30.303,-24.603 70.205,57.305 -48.101,68.104 -54.502,111.109 -13.579,-48.214 49.605,-49.005 37.803,-89.406 -0.828,-2.838 -5.601,-2.2 -9.401,-1.301 14.1,27.001 -20.101,40.503 -22.802,42.303 -1.199,0.299 -21.001,0 -21.001,0 0,0 -62.403,-72.004 -64.205,-75.003 2.4,-10.803 0.202,-21.802 0.202,-21.802 0,0 -46.404,-82.006 -78.804,-85.606 -2.402,-28.2 9.602,-30.402 20,-34.802 10.401,-4.401 15.157,-22.306 33.2,-27.601 36.804,-10.801 72.806,26.401 83.608,18.4 15.199,-5.2 60.804,-20.383 60.804,-20.383 0,0 30.64,-70.406 -31.628,-113.609 106.46,11.862 250.228,147.666 165.117,296.957"
           style="fill:#000000;fill-opacity:1;fill-rule:nonzero;stroke:none"
           id="path2059"
           inkscape:connector-curvature="0" /></g></g></g></svg>